<svg xmlns="http://www.w3.org/2000/svg" xmlns:xlink="http://www.w3.org/1999/xlink" version="1.1" width="480" height="320" viewBox="0 0 480 320" xml:space="preserve">
<desc>Created with Fabric.js 3.5.0</desc>
<defs>
</defs>
<rect x="0" y="0" width="100%" height="100%" fill="#ffffff"/>
<g transform="matrix(0.1499 0 0 0.1499 149.975 112.4999)" id="586293">
<g style="" vector-effect="non-scaling-stroke">
		<g transform="matrix(1 0 0 1 0 0)">
<path style="stroke: none; stroke-width: 1; stroke-dasharray: none; stroke-linecap: butt; stroke-dashoffset: 0; stroke-linejoin: miter; stroke-miterlimit: 4; is-custom-font: none; font-file-url: none; fill: rgb(51,51,102); fill-rule: evenodd; opacity: 1;" transform=" translate(-999.5, -749.5)" d="M -0.5 -0.5 C 666.167 -0.5 1332.83 -0.5 1999.5 -0.5 C 1999.5 499.5 1999.5 999.5 1999.5 1499.5 C 1332.83 1499.5 666.167 1499.5 -0.5 1499.5 C -0.5 999.5 -0.5 499.5 -0.5 -0.5 Z" stroke-linecap="round"/>
</g>
		<g transform="matrix(1 0 0 1 -0.659 -0.3595)">
<path style="stroke: none; stroke-width: 1; stroke-dasharray: none; stroke-linecap: butt; stroke-dashoffset: 0; stroke-linejoin: miter; stroke-miterlimit: 4; is-custom-font: none; font-file-url: none; fill: rgb(254,254,254); fill-rule: evenodd; opacity: 1;" transform=" translate(-998.8409, -749.1405)" d="M 972.5 249.5 C 1131.84 245.29 1265.34 301.29 1373 417.5 C 1475.17 537.055 1514.83 675.055 1492 831.5 C 1466.95 967.856 1398.78 1076.69 1287.5 1158 C 1180.26 1231.39 1061.92 1260.39 932.5 1245 C 777.274 1220.7 657.441 1142.86 573 1011.5 C 503.674 894.27 483.341 768.937 512 635.5 C 552.73 478.144 646.23 364.311 792.5 294 C 849.981 268.463 909.981 253.63 972.5 249.5 Z" stroke-linecap="round"/>
</g>
		<g transform="matrix(1 0 0 1 -0.5 -0.0625)">
<path style="stroke: none; stroke-width: 1; stroke-dasharray: none; stroke-linecap: butt; stroke-dashoffset: 0; stroke-linejoin: miter; stroke-miterlimit: 4; is-custom-font: none; font-file-url: none; fill: rgb(51,51,102); fill-rule: evenodd; opacity: 1;" transform=" translate(-999, -749.4376)" d="M 1214.5 566.5 C 1213.17 566.5 1211.83 566.5 1210.5 566.5 C 1210.22 568.415 1210.55 570.081 1211.5 571.5 C 1227.76 692.459 1243.76 813.459 1259.5 934.5 C 1276.17 936.5 1292.83 938.5 1309.5 940.5 C 1309.5 952.833 1309.5 965.167 1309.5 977.5 C 1244.5 977.5 1179.5 977.5 1114.5 977.5 C 1114.5 965.5 1114.5 953.5 1114.5 941.5 C 1115.79 941.737 1116.79 941.404 1117.5 940.5 C 1134.09 938.174 1150.76 936.508 1167.5 935.5 C 1155.65 808.05 1142.82 680.716 1129 553.5 C 1121.21 586.215 1113.21 618.882 1105 651.5 C 1075.36 753.725 1046.19 856.058 1017.5 958.5 C 995.5 958.5 973.5 958.5 951.5 958.5 C 923.181 864.374 894.347 770.374 865 676.5 C 853.174 635.529 841.508 594.529 830 553.5 C 818.741 680.797 807.907 808.13 797.5 935.5 C 816.826 937.261 836.16 938.928 855.5 940.5 C 856.209 941.404 857.209 941.737 858.5 941.5 C 858.5 953.5 858.5 965.5 858.5 977.5 C 801.833 977.5 745.167 977.5 688.5 977.5 C 688.5 965.167 688.5 952.833 688.5 940.5 C 705.793 939.185 722.96 937.185 740 934.5 C 754.835 811.822 769.668 689.156 784.5 566.5 C 762.44 564.73 740.44 562.396 718.5 559.5 C 718.5 546.833 718.5 534.167 718.5 521.5 C 782.503 521.167 846.503 521.5 910.5 522.5 C 934.656 609.486 958.823 696.486 983 783.5 C 988.208 807.666 994.042 831.666 1000.5 855.5 C 1005.91 832.307 1010.74 808.973 1015 785.5 C 1039.18 697.819 1063.34 610.153 1087.5 522.5 C 1150.83 521.5 1214.16 521.167 1277.5 521.5 C 1277.5 534.167 1277.5 546.833 1277.5 559.5 C 1256.52 562.013 1235.52 564.347 1214.5 566.5 Z" stroke-linecap="round"/>
</g>
		<g transform="matrix(1 0 0 1 212.9518 -180.5)">
<path style="stroke: none; stroke-width: 1; stroke-dasharray: none; stroke-linecap: butt; stroke-dashoffset: 0; stroke-linejoin: miter; stroke-miterlimit: 4; is-custom-font: none; font-file-url: none; fill: rgb(145,145,172); fill-rule: evenodd; opacity: 1;" transform=" translate(-1212.4519, -569)" d="M 1214.5 566.5 C 1213.79 567.404 1212.79 567.737 1211.5 567.5 C 1211.5 568.833 1211.5 570.167 1211.5 571.5 C 1210.55 570.081 1210.22 568.415 1210.5 566.5 C 1211.83 566.5 1213.17 566.5 1214.5 566.5 Z" stroke-linecap="round"/>
</g>
		<g transform="matrix(1 0 0 1 -141.9388 209.5)">
<path style="stroke: none; stroke-width: 1; stroke-dasharray: none; stroke-linecap: butt; stroke-dashoffset: 0; stroke-linejoin: miter; stroke-miterlimit: 4; is-custom-font: none; font-file-url: none; fill: rgb(121,121,155); fill-rule: evenodd; opacity: 1;" transform=" translate(-857.5612, -959)" d="M 855.5 940.5 C 856.833 940.5 858.167 940.5 859.5 940.5 C 859.829 953.011 859.495 965.345 858.5 977.5 C 858.5 965.5 858.5 953.5 858.5 941.5 C 857.209 941.737 856.209 941.404 855.5 940.5 Z" stroke-linecap="round"/>
</g>
		<g transform="matrix(1 0 0 1 115.9382 209.5)">
<path style="stroke: none; stroke-width: 1; stroke-dasharray: none; stroke-linecap: butt; stroke-dashoffset: 0; stroke-linejoin: miter; stroke-miterlimit: 4; is-custom-font: none; font-file-url: none; fill: rgb(82,82,125); fill-rule: evenodd; opacity: 1;" transform=" translate(-1115.4382, -959)" d="M 1117.5 940.5 C 1116.79 941.404 1115.79 941.737 1114.5 941.5 C 1114.5 953.5 1114.5 965.5 1114.5 977.5 C 1113.5 965.345 1113.17 953.011 1113.5 940.5 C 1114.83 940.5 1116.17 940.5 1117.5 940.5 Z" stroke-linecap="round"/>
</g>
</g>
</g>
</svg>